#!OML:ASF E:\Steps\Project 1\Capture day 1\Session 2\Subject.ASF
:FULLY-SPECIFIED
:DEGREES
216
root 9.01611 16.2152 31.5867 -158.6 -2.77434 179.574
lowerback -26.5983 -1.56707 -4.69945
upperback -0.633866 -1.0011 -0.195699
thorax 14.2955 -0.937929 2.06006
lowerneck -7.68994 -2.0832 3.90492
upperneck 14.1148 -3.06549 -4.52827
head 5.37823 -1.75686 -2.28039
rclavicle 3.8266e-015 1.51076e-014
rhumerus -34.2953 -19.8876 -78.3226
rradius 26.6241
rwrist 3.74271
rhand -7.09843 -46.3939
rfingers 7.12502
rthumb 18.7762 -75.5077
lclavicle 3.8266e-015 1.51076e-014
lhumerus -30.4049 8.28083 80.8369
lradius 18.5313
lwrist -9.48615
lhand -19.1293 -11.8558
lfingers 7.12502
lthumb 7.18033 18.0024
rfemur -21.8306 8.01542 20.618
rtibia 11.4953
rfoot -21.0943 -9.42998
rtoes -24.2437
lfemur -24.0124 -10.4622 -19.1998
ltibia 12.9213
lfoot -9.4572 2.33267
ltoes -40.5583
217
root 9.01943 16.2145 31.5886 -158.521 -2.77416 179.521
lowerback -26.6341 -1.61205 -4.81337
upperback -0.634212 -1.02543 -0.19157
thorax 14.3188 -0.958058 2.12049
lowerneck -7.72353 -2.07996 3.94498
upperneck 14.1344 -3.06127 -4.57213
head 5.38877 -1.75612 -2.30143
rclavicle 7.05686e-015 -7.95139e-016
rhumerus -34.0062 -20.0086 -78.38
rradius 26.5167
rwrist 3.92626
rhand -6.7918 -46.7849
rfingers 7.12502
rthumb 19.0711 -75.8699
lclavicle 7.05686e-015 -7.95139e-016
lhumerus -30.334 7.98997 81.0356
lradius 18.9354
lwrist -9.10005
lhand -19.4006 -11.7797
lfingers 7.12502
lthumb 6.91841 18.0872
rfemur -21.9233 8.07292 20.556
rtibia 11.4892
rfoot -21.0509 -9.53358
rtoes -24.4067
lfemur -24.1948 -10.4268 -19.2244
ltibia 13.0526
lfoot -9.42493 2.27936
ltoes -41.0325
218
root 9.01769 16.216 31.5857 -158.604 -2.79321 179.465
lowerback -26.5423 -1.61579 -4.84356
upperback -0.612925 -1.01924 -0.203853
thorax 14.2934 -0.954758 2.12737
lowerneck -7.73671 -2.09531 3.97113
upperneck 14.1513 -3.08236 -4.60185
head 5.39432 -1.76753 -2.31696
rclavicle -2.43511e-015 1.98785e-014
rhumerus -33.8411 -20.1966 -78.328
rradius 26.4185
rwrist 4.02652
rhand -5.91998 -49.2908
rfingers 7.12502
rthumb 19.9093 -78.2909
lclavicle -2.43511e-015 1.98785e-014
lhumerus -30.3253 7.37701 81.3482
lradius 19.3984
lwrist -8.56476
lhand -19.5109 -11.4989
lfingers 7.12502
lthumb 6.81199 18.3715
rfemur -21.8003 8.07347 20.4726
rtibia 11.4243
rfoot -20.9854 -9.64964
rtoes -24.484
lfemur -24.0449 -10.5294 -19.287
ltibia 12.9499
lfoot -9.44079 2.35953
ltoes -41.0158
219
root 9.01908 16.2146 31.5878 -158.568 -2.76695 179.416
lowerback -26.4982 -1.597 -4.90243
upperback -0.644027 -0.981345 -0.218956
thorax 14.2295 -0.94094 2.15899
lowerneck -7.73223 -2.11657 3.98481
upperneck 14.1684 -3.11049 -4.6281
head 5.39685 -1.78292 -2.32951
rclavicle -3.57812e-015 -1.70955e-014
rhumerus -33.8306 -20.2139 -78.3462
rradius 26.6004
rwrist 3.78025
rhand -5.94965 -48.5097
rfingers 7.12502
rthumb 19.8808 -77.5129
lclavicle -3.57812e-015 -1.70955e-014
lhumerus -30.2844 6.80166 81.6385
lradius 19.7536
lwrist -8.0717
lhand -19.3774 -11.3454
lfingers 7.12502
lthumb 6.9409 18.5208
rfemur -21.8724 8.05746 20.4345
rtibia 11.4727
rfoot -21.0208 -9.64233
rtoes -24.6645
lfemur -24.1244 -10.4372 -19.3541
ltibia 13.0388
lfoot -9.51867 2.32824
ltoes -40.783
220
root 9.01819 16.2145 31.5861 -158.635 -2.71882 179.436
lowerback -26.437 -1.56955 -4.87147
upperback -0.604521 -0.949003 -0.230147
thorax 14.2397 -0.921943 2.14139
lowerneck -7.72047 -2.12369 3.9902
upperneck 14.189 -3.11775 -4.663
head 5.40013 -1.78948 -2.34205
rclavicle 0 1.15295e-014
rhumerus -33.7429 -19.8242 -78.6314
rradius 26.9357
rwrist 3.11234
rhand -7.08912 -45.3125
rfingers 7.12502
rthumb 18.7851 -74.4254
lclavicle 0 1.15295e-014
lhumerus -30.1801 6.53031 81.8068
lradius 20.0111
lwrist -7.92586
lhand -19.3852 -11.4097
lfingers 7.12502
lthumb 6.93332 18.4567
rfemur -21.8228 8.10136 20.4314
rtibia 11.5163
rfoot -21.1072 -9.59293
rtoes -24.519
lfemur -24.0661 -10.4327 -19.3443
ltibia 13.0846
lfoot -9.54094 2.43776
ltoes -40.6993
221
root 9.02164 16.2127 31.588 -158.598 -2.71256 179.482
lowerback -26.4139 -1.57362 -4.874
upperback -0.607408 -0.95688 -0.213712
thorax 14.2245 -0.925875 2.15927
lowerneck -7.71474 -2.12485 4.01924
upperneck 14.2089 -3.11835 -4.70909
head 5.40394 -1.79229 -2.36166
rclavicle 1.04362e-015 -1.59028e-015
rhumerus -33.6653 -19.3417 -78.9554
rradius 27.2556
rwrist 2.39008
rhand -7.52644 -45.3229
rfingers 7.12502
rthumb 18.3645 -74.4761
lclavicle 1.04362e-015 -1.59028e-015
lhumerus -30.0968 6.03473 82.0514
lradius 20.3594
lwrist -7.57304
lhand -19.6323 -11.3564
lfingers 7.12502
lthumb 6.69483 18.5178
rfemur -21.8985 8.23478 20.494
rtibia 11.5888
rfoot -21.219 -9.62859
rtoes -24.2061
lfemur -24.1514 -10.2139 -19.2963
ltibia 13.1554
lfoot -9.55164 2.28815
ltoes -40.7498
222
root 9.02234 16.2162 31.5878 -158.758 -2.7873 179.463
lowerback -26.2042 -1.60892 -4.87835
upperback -0.556426 -1.00093 -0.214604
thorax 14.173 -0.94095 2.14704
lowerneck -7.7599 -2.12266 4.07934
upperneck 14.2246 -3.11713 -4.75728
head 5.41468 -1.79203 -2.38768
rclavicle -2.28602e-015 -1.47101e-014
rhumerus -33.5935 -19.1769 -79.119
rradius 27.4238
rwrist 2.16584
rhand -7.46953 -44.6458
rfingers 7.12502
rthumb 18.4192 -73.7938
lclavicle -2.28602e-015 -1.47101e-014
lhumerus -29.9633 5.68268 82.1926
lradius 20.6599
lwrist -7.43871
lhand -19.4544 -11.6494
lfingers 7.12502
lthumb 6.86649 18.2192
rfemur -21.6846 8.26387 20.5007
rtibia 11.5403
rfoot -21.3222 -9.71851
rtoes -23.8185
lfemur -23.9599 -10.306 -19.317
ltibia 13.1306
lfoot -9.53299 2.29726
ltoes -41.0408
